{"title":"The Musketeers S02E05 - The Return x264 RB58.mp4","uid":11700796,"size":648605521,"categoryP":"video","categoryS":"tv_shows","magnet":"?xt=urn:btih:8fef800664cce6024b2fea47261bf8f664bd4ad6&amp;dn=The+Musketeers+S02E05+-+The+Return+x264+RB58.mp4&amp;tr=udp%3A%2F%2Ftracker.openbittorrent.com%3A80&amp;tr=udp%3A%2F%2Fopen.demonii.com%3A1337&amp;tr=udp%3A%2F%2Ftracker.coppersurfer.tk%3A6969&amp;tr=udp%3A%2F%2Fexodus.desync.com%3A6969","seeders":0,"leechers":1,"uploader":"RedBaron58","files":1,"time":1423921420,"description":"The Musketeers S02E05 - The Return - Drama x264 mp4\n &lt;a href=&quot;\nhttp://www.imdb.com/title/tt3565764/&quot; rel=&quot;nofollow&quot; target=&quot;_NEW&quot;&gt;\nhttp://www.imdb.com/title/tt3565764/&lt;/a&gt;\n\nTrailer:\n\n\nPlease be patient My intial upload speed is limited.\nThank you for your kind comments and thumbs ups on my other torrents, your feedback is welcome.\n\n\nAbout the Episode:\nAthos is kidnapped and taken back to his old estate of Pinon, where he comes into conflict with \nBaron Renard, who has decided that if the aristocratic soldier has rejected his birthright, \nhe will seize the land for himself. \nLuckily, the rest of the Musketeers are not far behind and help train the locals in combat, \nso they can defend the area against multiple attacks. In the end, however, it is Athos who faces \na more personal battle when he encounters an old friend whose life he ruined many years earlier\n\n\nI hope you enjoy.\n\n\nTechnical:\n\nGeneral\nComplete name                            : H:The Musketeers S02E05 - The Return x264 RB58.mp4\nFormat                                   : MPEG-4\nFormat profile                           : Base Media\nCodec ID                                 : isom\nFile size                                : 619 MiB\nDuration                                 : 56mn 18s\nOverall bit rate                         : 1 536 Kbps\nWriting application                      : Lavf54.63.104\n\nVideo\nID                                       : 1\nFormat                                   : AVC\nFormat/Info                              : Advanced Video Codec\nFormat profile                           : &lt;a class=&quot;__cf_email__&quot; href=&quot;/cdn-cgi/l/email-protection&quot; data-cfemail=&quot;d098b9b7b8909ce3fee0&quot;&gt;[email&amp;#160;protected]&lt;/a&gt;&lt;script cf-hash='f9e31' type=&quot;text/javascript&quot;&gt;\n/* &lt;![CDATA[ */!function(){try{var t=&quot;currentScript&quot;in document?document.currentScript:function(){for(var t=document.getElementsByTagName(&quot;script&quot;),e=t.length;e--;)if(t[e].getAttribute(&quot;cf-hash&quot;))return t[e]}();if(t&amp;&amp;t.previousSibling){var e,r,n,i,c=t.previousSibling,a=c.getAttribute(&quot;data-cfemail&quot;);if(a){for(e=&quot;&quot;,r=parseInt(a.substr(0,2),16),n=2;a.length-n;n+=2)i=parseInt(a.substr(n,2),16)^r,e+=String.fromCharCode(i);e=document.createTextNode(e),c.parentNode.replaceChild(e,c)}}}catch(u){}}();/* ]]&gt; */&lt;/script&gt;\nFormat settings, CABAC                   : Yes\nFormat settings, ReFrames                : 4 frames\nCodec ID                                 : avc1\nCodec ID/Info                            : Advanced Video Coding\nDuration                                 : 56mn 18s\nBit rate                                 : 1 400 Kbps\nWidth                                    : 832 pixels\nHeight                                   : 468 pixels\nDisplay aspect ratio                     : 16:9\nFrame rate mode                          : Constant\nFrame rate                               : 25.000 fps\nColor space                              : YUV\nChroma subsampling                       : 4:2:0\nBit depth                                : 8 bits\nScan type                                : Progressive\nBits/(Pixel*Frame)                       : 0.144\nStream size                              : 564 MiB (91%)\nWriting library                          : x264 core 123 r2189 35cf912\nEncoding settings                        : cabac=1 / ref=3 / deblock=1:0:0\n\nAudio\nID                                       : 2\nFormat                                   : AAC\nFormat/Info                              : Advanced Audio Codec\nFormat profile                           : LC\nCodec ID                                 : 40\nDuration                                 : 56mn 18s\nBit rate mode                            : Constant\nBit rate                                 : 127 Kbps\nChannel(s)                               : 2 channels\nChannel positions                        : Front: L R\nSampling rate                            : 48.0 KHz\nCompression mode                         : Lossy\nStream size                              : 51.2 MiB (8%)","torrent":{"xt":"urn:btih:8fef800664cce6024b2fea47261bf8f664bd4ad6","amp;dn":"The+Musketeers+S02E05+-+The+Return+x264+RB58.mp4","amp;tr":["udp%3A%2F%2Ftracker.openbittorrent.com%3A80","udp%3A%2F%2Fopen.demonii.com%3A1337","udp%3A%2F%2Ftracker.coppersurfer.tk%3A6969","udp%3A%2F%2Fexodus.desync.com%3A6969"],"infoHash":"8fef800664cce6024b2fea47261bf8f664bd4ad6","infoHashBuffer":{"type":"Buffer","data":[143,239,128,6,100,204,230,2,75,47,234,71,38,27,248,246,100,189,74,214]},"announce":[],"urlList":[]}}